<?xml version="1.0" standalone="no"?>
<!DOCTYPE svg PUBLIC "-//W3C//DTD SVG 20010904//EN"
 "http://www.w3.org/TR/2001/REC-SVG-20010904/DTD/svg10.dtd">
<svg version="1.0" xmlns="http://www.w3.org/2000/svg"
 width="1114.000000pt" height="1124.000000pt" viewBox="0 0 1114.000000 1124.000000"
 preserveAspectRatio="xMidYMid meet">

<g transform="translate(0.000000,1124.000000) scale(0.100000,-0.100000)"
fill="#000000" stroke="none">
<path d="M5270 10639 c-52 -5 -144 -14 -205 -20 -198 -19 -442 -58 -620 -101
-22 -5 -58 -13 -80 -18 -22 -5 -56 -13 -75 -19 -67 -20 -155 -43 -183 -48 -15
-3 -30 -9 -33 -14 -3 -5 -14 -9 -25 -9 -10 0 -27 -4 -37 -10 -9 -5 -46 -19
-82 -31 -66 -22 -174 -62 -220 -81 -14 -6 -34 -14 -45 -18 -11 -5 -40 -17 -65
-28 -25 -11 -63 -28 -85 -37 -105 -46 -367 -182 -417 -217 -14 -10 -29 -18
-32 -18 -3 0 -36 -19 -74 -42 -37 -24 -75 -47 -84 -53 -9 -5 -56 -37 -105 -70
-77 -52 -130 -90 -247 -178 -16 -12 -70 -56 -119 -97 -49 -41 -101 -84 -116
-94 -81 -61 -470 -462 -577 -595 -10 -13 -30 -38 -44 -55 -36 -44 -111 -142
-135 -176 -106 -149 -135 -193 -135 -201 0 -5 -4 -9 -10 -9 -5 0 -10 -5 -10
-11 0 -6 -10 -25 -22 -42 -40 -56 -118 -186 -162 -272 -12 -22 -24 -42 -27
-45 -7 -6 -189 -375 -189 -384 0 -3 -9 -28 -21 -54 -12 -26 -25 -56 -29 -67
-4 -11 -17 -43 -28 -71 -12 -28 -28 -73 -37 -100 -9 -27 -20 -58 -24 -69 -5
-11 -14 -36 -21 -55 -7 -19 -16 -44 -20 -55 -4 -11 -13 -38 -19 -60 -6 -22
-18 -67 -27 -100 -9 -33 -20 -68 -25 -77 -5 -10 -9 -25 -9 -35 0 -9 -4 -30
-10 -47 -21 -67 -60 -248 -80 -371 -5 -27 -13 -79 -19 -115 -45 -264 -61 -478
-61 -822 0 -287 5 -383 31 -598 19 -161 49 -334 90 -520 11 -52 23 -108 25
-125 3 -16 9 -39 14 -50 5 -11 11 -31 14 -45 5 -26 14 -60 41 -150 9 -30 20
-68 25 -85 9 -34 74 -215 113 -318 27 -71 38 -95 81 -190 14 -32 26 -60 26
-63 0 -13 178 -359 215 -418 7 -12 22 -37 32 -56 51 -93 213 -337 312 -470 70
-94 219 -276 290 -355 181 -200 492 -489 645 -600 23 -16 43 -32 46 -35 3 -4
37 -28 75 -55 39 -27 72 -52 75 -56 3 -3 39 -28 80 -54 41 -26 77 -52 78 -56
2 -5 8 -9 14 -9 5 0 41 -20 79 -45 38 -25 72 -45 75 -45 3 0 18 -8 32 -18 81
-56 466 -247 599 -297 35 -14 78 -31 96 -39 17 -8 68 -26 112 -40 44 -15 88
-31 97 -36 10 -6 26 -10 36 -10 10 0 22 -3 26 -7 3 -4 35 -15 69 -24 34 -9 89
-24 122 -34 77 -22 154 -41 265 -65 30 -7 73 -16 95 -21 74 -17 342 -55 505
-72 212 -22 783 -14 970 13 36 5 119 17 185 25 66 9 143 21 170 27 90 18 139
29 178 39 20 5 54 13 75 18 137 35 175 45 237 63 39 11 78 24 87 29 10 5 23 9
29 9 7 0 57 16 113 36 103 36 114 40 178 68 21 9 55 23 75 30 50 18 150 64
303 139 113 55 172 87 280 150 19 11 44 25 55 31 62 35 331 216 414 280 37 28
85 64 107 81 249 189 613 552 820 820 136 175 162 211 230 315 38 58 72 107
77 108 4 2 7 8 7 13 0 5 20 40 45 79 25 39 45 72 45 75 0 3 11 22 23 43 81
128 261 500 316 652 15 39 26 69 41 103 12 29 92 274 114 352 10 33 21 71 26
85 5 14 14 48 20 75 6 28 23 95 37 150 14 55 29 123 33 150 5 28 16 95 25 150
51 312 59 426 59 855 0 429 -8 556 -58 860 -9 52 -19 111 -22 130 -5 33 -35
166 -54 240 -5 19 -18 73 -30 120 -22 89 -66 241 -80 275 -5 11 -20 56 -35
100 -14 44 -30 89 -35 100 -4 11 -24 61 -43 110 -77 197 -256 568 -318 657
-11 14 -19 29 -19 32 0 3 -20 37 -45 76 -25 39 -45 72 -45 74 0 9 -203 301
-260 373 -34 43 -73 94 -88 113 -126 163 -414 461 -598 620 -53 46 -209 175
-239 197 -17 12 -61 45 -98 72 -37 28 -72 51 -77 51 -4 0 -10 4 -12 8 -4 10
-311 212 -322 212 -3 0 -37 19 -78 43 -40 24 -123 69 -184 99 -61 31 -119 60
-130 66 -10 6 -37 18 -59 27 -22 9 -60 26 -85 37 -110 49 -284 115 -360 138
-25 7 -49 17 -54 22 -6 4 -20 8 -32 8 -13 0 -25 4 -28 9 -3 5 -18 11 -33 14
-28 5 -116 28 -183 48 -19 6 -53 14 -75 19 -22 5 -58 13 -80 18 -182 44 -305
65 -535 92 -268 33 -645 46 -820 29z m670 -259 c203 -21 467 -59 510 -73 8 -3
51 -13 95 -22 44 -9 96 -20 115 -25 88 -23 187 -52 205 -59 11 -5 47 -16 80
-25 54 -16 138 -45 190 -66 11 -5 47 -18 80 -30 33 -12 76 -28 95 -37 19 -8
44 -19 55 -23 34 -14 408 -199 440 -217 17 -10 61 -37 98 -60 37 -24 70 -43
74 -43 9 0 311 -211 404 -283 322 -248 729 -668 919 -947 13 -19 27 -37 31
-40 11 -8 151 -221 214 -325 61 -100 92 -157 184 -340 66 -130 95 -192 131
-280 4 -11 15 -36 23 -55 9 -19 25 -62 37 -95 22 -61 29 -79 48 -125 16 -40
29 -79 57 -175 15 -49 30 -101 35 -115 8 -26 22 -77 41 -152 6 -24 14 -56 19
-73 5 -16 16 -70 25 -120 9 -49 20 -108 25 -130 8 -37 13 -66 40 -247 26 -173
34 -335 34 -653 -1 -367 -15 -548 -64 -820 -6 -33 -15 -85 -19 -115 -10 -63
-26 -137 -42 -195 -6 -22 -15 -58 -21 -80 -19 -79 -30 -120 -38 -145 -5 -14
-16 -52 -26 -85 -33 -118 -121 -362 -170 -473 -9 -20 -20 -46 -24 -57 -18 -42
-181 -372 -203 -410 -13 -22 -35 -60 -49 -85 -39 -69 -158 -262 -179 -290 -11
-14 -73 -97 -138 -185 -65 -88 -154 -200 -196 -250 -111 -129 -375 -397 -480
-485 -133 -113 -313 -254 -396 -310 -93 -63 -240 -160 -244 -160 -3 0 -29 -16
-59 -35 -30 -19 -58 -35 -61 -35 -4 0 -19 -9 -34 -19 -27 -20 -384 -201 -395
-201 -3 0 -25 -8 -49 -19 -115 -51 -134 -59 -157 -65 -14 -4 -34 -11 -45 -16
-53 -22 -140 -52 -245 -85 -109 -34 -136 -42 -230 -65 -22 -5 -57 -14 -77 -20
-108 -28 -121 -31 -308 -61 -310 -49 -376 -54 -740 -54 -320 0 -496 10 -660
36 -33 5 -85 14 -115 18 -112 18 -232 42 -352 72 -21 5 -55 13 -75 18 -47 11
-181 51 -208 61 -11 4 -42 15 -70 23 -65 20 -149 51 -155 57 -3 3 -30 13 -60
23 -30 10 -73 26 -95 37 -22 10 -56 25 -75 33 -147 63 -219 99 -435 216 -127
69 -402 251 -535 355 -319 248 -626 553 -856 847 -113 146 -100 127 -228 319
-187 282 -330 552 -447 844 -22 56 -45 109 -50 118 -5 10 -9 26 -9 36 0 10 -4
22 -9 28 -10 11 -73 200 -119 359 -27 94 -72 286 -93 395 -71 380 -105 898
-80 1220 16 210 53 513 76 625 3 17 10 55 16 85 13 64 56 251 69 295 35 123
53 183 60 200 4 11 20 61 36 110 15 50 31 97 35 105 5 8 22 52 38 97 45 120
83 205 177 398 113 229 218 408 359 610 94 134 109 153 225 299 187 234 473
516 730 721 141 112 429 315 446 315 3 0 24 13 47 29 72 49 442 241 562 291
11 4 36 15 55 23 19 9 62 25 95 37 61 22 79 29 125 48 82 34 382 124 475 142
22 4 74 16 115 25 211 47 498 85 755 99 108 6 509 -4 615 -14z"/>
<path d="M4768 8735 c-3 -3 -53 -11 -110 -16 -56 -5 -128 -13 -158 -18 -30 -6
-84 -15 -120 -20 -100 -16 -277 -62 -312 -81 -10 -6 -27 -10 -39 -10 -12 0
-19 -5 -17 -12 7 -20 40 -22 54 -3 10 14 22 16 49 12 30 -5 36 -3 31 8 -3 10
1 15 14 15 10 0 22 5 25 10 3 6 24 10 45 10 21 0 41 4 45 10 3 5 18 9 33 9 68
0 112 7 124 19 17 17 32 15 53 -8 10 -11 23 -20 29 -20 6 0 5 4 -3 9 -19 12
-5 31 24 31 13 0 26 4 29 9 19 30 729 31 760 0 6 -5 30 -9 55 -9 26 0 69 -3
98 -6 46 -6 52 -9 50 -28 -1 -11 -6 -24 -12 -28 -5 -4 -6 -10 -2 -15 10 -10
27 16 20 33 -3 9 12 12 59 10 35 0 66 -5 69 -9 3 -4 17 -9 31 -11 15 -1 38
-10 52 -19 14 -9 31 -14 39 -11 8 3 19 -2 26 -10 7 -8 18 -13 26 -10 7 3 16 1
20 -5 3 -6 17 -11 31 -11 13 0 47 -11 75 -25 29 -13 55 -22 60 -19 5 2 11 -6
15 -20 4 -16 11 -23 20 -19 7 3 27 -1 44 -8 22 -10 30 -21 30 -39 1 -21 2 -23
13 -10 16 20 61 14 53 -6 -4 -9 -2 -12 5 -8 6 4 14 3 18 -2 10 -15 53 -36 59
-30 7 8 -20 28 -83 62 -27 15 -52 30 -55 34 -9 11 -174 88 -225 105 -28 9 -59
20 -70 24 -102 41 -178 60 -242 61 -24 0 -43 4 -43 9 0 5 -17 11 -37 15 -21 3
-65 10 -98 16 -150 26 -639 53 -657 35z"/>
<path d="M5170 8680 c0 -5 4 -10 9 -10 6 0 13 5 16 10 3 6 -1 10 -9 10 -9 0
-16 -4 -16 -10z"/>
<path d="M5571 8613 c-12 -13 -11 -14 10 -8 33 10 48 25 24 25 -11 -1 -26 -8
-34 -17z"/>
<path d="M5420 8590 c0 -5 5 -10 10 -10 6 0 10 5 10 10 0 6 -4 10 -10 10 -5 0
-10 -4 -10 -10z"/>
<path d="M3888 8542 c-36 -15 -70 -30 -74 -34 -4 -5 -14 -8 -23 -8 -23 0 -153
-65 -146 -72 9 -8 109 28 113 41 2 6 14 11 27 11 13 0 26 4 29 9 4 5 24 12 46
16 25 4 40 12 40 21 0 8 6 14 13 13 29 -4 54 2 73 16 18 14 18 14 -6 14 -14
-1 -55 -13 -92 -27z"/>
<path d="M5865 8520 c-3 -5 -2 -10 4 -10 5 0 13 5 16 10 3 6 2 10 -4 10 -5 0
-13 -4 -16 -10z"/>
<path d="M5938 8513 c6 -2 18 -2 25 0 6 3 1 5 -13 5 -14 0 -19 -2 -12 -5z"/>
<path d="M4010 8500 c-13 -8 -12 -10 3 -10 9 0 17 5 17 10 0 12 -1 12 -20 0z"/>
<path d="M5980 8464 c0 -8 5 -12 10 -9 6 3 10 10 10 16 0 5 -4 9 -10 9 -5 0
-10 -7 -10 -16z"/>
<path d="M3870 8460 c0 -5 9 -10 21 -10 11 0 17 5 14 10 -3 6 -13 10 -21 10
-8 0 -14 -4 -14 -10z"/>
<path d="M3600 8421 c-8 -5 -38 -22 -67 -39 -28 -17 -61 -33 -73 -37 -12 -4
-48 -24 -80 -46 -33 -21 -63 -39 -68 -39 -4 0 -17 -8 -28 -17 -11 -10 -36 -26
-55 -36 -60 -31 -298 -215 -381 -295 -44 -42 -111 -119 -151 -172 -65 -85 -72
-100 -74 -143 -1 -37 3 -50 15 -54 10 -2 26 -8 37 -13 95 -39 305 -79 305 -58
0 4 -13 8 -29 8 -16 0 -42 5 -58 12 -15 6 -39 10 -52 9 -13 -2 -33 1 -45 7
-74 33 -97 41 -109 36 -8 -3 -20 2 -27 11 -8 10 -9 15 -1 15 6 0 11 5 11 11 0
6 -6 9 -14 6 -29 -12 -15 53 20 90 18 19 32 39 31 44 -4 16 213 249 232 249 6
0 11 5 11 11 0 6 7 9 15 5 8 -3 15 -2 15 3 0 15 82 91 97 91 11 0 13 -7 9 -26
-6 -23 -5 -24 13 -14 20 10 19 40 0 40 -18 0 -8 18 14 24 12 3 41 24 65 46 24
22 47 40 52 40 6 0 10 5 10 10 0 16 37 12 54 -6 9 -8 22 -13 29 -11 9 4 9 6 0
6 -17 1 -17 51 0 51 7 0 19 9 27 20 8 11 20 20 27 20 7 0 13 4 13 9 0 5 16 12
35 15 19 4 35 11 35 15 0 15 33 22 43 9 6 -9 7 -8 3 5 -4 12 0 17 13 17 11 0
22 6 24 13 4 10 6 10 6 0 1 -7 7 -13 15 -13 9 0 12 7 9 18 -3 13 5 21 31 32
19 7 33 17 30 22 -6 10 -14 9 -34 -1z"/>
<path d="M6265 8350 c-10 -11 -15 -23 -11 -28 4 -4 14 2 22 12 14 19 14 19 36
-4 13 -14 22 -28 21 -31 -1 -4 13 -10 32 -13 19 -4 35 -10 35 -14 0 -4 12 -15
28 -24 15 -9 42 -30 60 -47 17 -17 35 -31 38 -31 4 0 14 -8 23 -17 9 -10 32
-27 51 -37 19 -11 39 -26 43 -33 5 -7 12 -11 18 -8 5 3 6 -1 3 -9 -4 -12 0
-16 15 -16 12 0 24 -7 27 -15 4 -8 15 -15 26 -15 10 0 33 -7 49 -16 17 -8 36
-13 42 -10 7 2 4 5 -5 5 -10 1 -18 5 -18 10 0 5 -8 11 -17 14 -45 15 -293 191
-393 279 -19 16 -45 35 -57 41 -13 6 -23 14 -23 19 0 15 -27 8 -45 -12z"/>
<path d="M6200 8350 c0 -5 7 -10 15 -10 8 0 15 5 15 10 0 6 -7 10 -15 10 -8 0
-15 -4 -15 -10z"/>
<path d="M3590 8330 c0 -5 5 -10 10 -10 6 0 10 5 10 10 0 6 -4 10 -10 10 -5 0
-10 -4 -10 -10z"/>
<path d="M3465 8290 c3 -5 8 -10 11 -10 2 0 4 5 4 10 0 6 -5 10 -11 10 -5 0
-7 -4 -4 -10z"/>
<path d="M6420 8150 c0 -5 10 -10 23 -10 18 0 19 2 7 10 -19 13 -30 13 -30 0z"/>
<path d="M6515 8150 c-3 -5 -1 -10 4 -10 6 0 11 5 11 10 0 6 -2 10 -4 10 -3 0
-8 -4 -11 -10z"/>
<path d="M8560 8131 c-41 -9 -153 -62 -170 -82 -3 -3 -20 -12 -37 -20 -18 -8
-33 -17 -33 -21 0 -13 18 -9 56 12 23 13 44 18 57 14 19 -6 20 -5 8 10 -12 14
-11 16 3 16 9 0 16 5 16 10 0 6 9 10 19 10 11 0 23 5 26 10 3 6 17 7 31 4 14
-4 24 -2 24 5 0 16 35 14 49 -3 16 -19 -5 -95 -31 -114 -10 -7 -18 -21 -18
-31 0 -23 -25 -45 -41 -36 -7 5 -9 1 -5 -12 4 -13 -2 -27 -19 -43 -14 -13 -25
-29 -25 -37 0 -7 -7 -13 -15 -13 -8 0 -15 -4 -15 -10 0 -5 -7 -10 -16 -10 -10
0 -13 -6 -9 -18 4 -14 -12 -35 -60 -80 -36 -33 -65 -64 -65 -69 0 -9 -62 -53
-74 -53 -5 0 -6 7 -3 15 4 8 2 17 -3 20 -10 6 -13 -6 -11 -42 2 -25 -14 -38
-49 -38 -19 0 -25 -5 -25 -22 0 -24 -39 -58 -55 -48 -6 3 -7 -1 -4 -9 4 -11 0
-16 -10 -16 -9 0 -16 -4 -16 -10 0 -5 -7 -10 -15 -10 -8 0 -15 -4 -15 -9 0 -5
-9 -7 -20 -4 -12 3 -20 0 -20 -6 0 -7 -4 -9 -10 -6 -5 3 -10 -1 -10 -9 0 -9
-7 -16 -15 -16 -8 0 -15 -3 -15 -7 0 -16 -48 -31 -60 -19 -8 8 -12 4 -17 -12
-5 -20 -10 -22 -36 -16 -20 4 -27 3 -23 -5 9 -13 -41 -39 -93 -47 -23 -4 -41
-10 -41 -15 0 -5 -13 -9 -30 -9 -16 0 -30 -4 -30 -9 0 -13 -102 -22 -116 -10
-8 6 -13 5 -18 -6 -3 -9 -18 -15 -36 -15 -16 0 -30 -5 -30 -11 0 -16 195 5
206 22 3 5 16 9 29 9 13 0 27 5 30 10 3 6 17 10 30 10 13 0 26 4 29 9 3 4 20
11 38 15 36 7 121 46 126 59 2 4 11 7 20 7 10 0 28 9 42 20 14 11 29 20 33 20
5 0 23 11 41 25 18 14 36 25 39 25 3 0 41 27 85 60 134 101 382 360 382 398 0
6 3 12 8 14 4 2 29 33 55 71 49 68 69 128 48 141 -6 4 -11 16 -11 27 0 20 -4
21 -60 10z"/>
<path d="M8570 8040 c0 -5 5 -10 11 -10 5 0 7 5 4 10 -3 6 -8 10 -11 10 -2 0
-4 -4 -4 -10z"/>
<path d="M8550 8000 c0 -5 7 -10 15 -10 8 0 15 5 15 10 0 6 -7 10 -15 10 -8 0
-15 -4 -15 -10z"/>
<path d="M8240 7983 c-25 -9 -53 -19 -62 -24 -10 -5 -29 -9 -43 -9 -14 0 -33
-4 -43 -9 -23 -12 -192 -51 -219 -51 -13 0 -23 -4 -23 -8 0 -4 -17 -8 -37 -9
-21 0 -78 -6 -128 -12 -116 -16 -171 -17 -275 -8 -135 12 -368 54 -385 68 -5
5 -19 9 -32 9 -13 0 -23 5 -23 10 0 6 -10 10 -23 10 -13 0 -27 4 -32 9 -6 5
-28 12 -50 16 l-40 7 49 -26 c27 -14 57 -26 67 -26 10 0 24 -9 32 -20 9 -13
20 -18 31 -14 9 3 29 2 44 -4 15 -6 36 -13 47 -17 11 -4 47 -9 80 -11 33 -3
76 -8 95 -14 34 -9 207 -23 285 -23 22 0 81 5 130 12 50 7 115 14 145 17 30 3
59 10 65 15 5 5 19 9 31 9 13 0 26 5 29 11 4 6 21 9 39 8 17 -2 37 0 44 5 7 4
21 4 32 1 13 -4 22 -1 26 9 4 10 18 16 39 16 19 0 37 5 40 10 3 6 17 10 31 10
13 0 24 5 24 11 0 8 14 10 45 6 27 -4 45 -3 45 3 0 6 -3 9 -7 9 -20 -3 -26 2
-13 11 23 15 -6 12 -60 -7z"/>
<path d="M2951 7956 c-11 -14 -11 -16 2 -16 8 0 17 -5 19 -12 2 -6 10 -8 16
-4 16 10 15 26 -2 26 -8 0 -16 5 -18 11 -2 7 -9 5 -17 -5z"/>
<path d="M8305 7930 c-3 -5 1 -10 9 -10 9 0 16 5 16 10 0 6 -4 10 -9 10 -6 0
-13 -4 -16 -10z"/>
<path d="M8188 7873 c7 -3 16 -2 19 1 4 3 -2 6 -13 5 -11 0 -14 -3 -6 -6z"/>
<path d="M2880 7860 c0 -5 5 -10 11 -10 5 0 7 5 4 10 -3 6 -8 10 -11 10 -2 0
-4 -4 -4 -10z"/>
<path d="M7960 7860 c0 -5 5 -10 10 -10 6 0 10 5 10 10 0 6 -4 10 -10 10 -5 0
-10 -4 -10 -10z"/>
<path d="M4905 7840 c-3 -5 1 -10 10 -10 9 0 13 5 10 10 -3 6 -8 10 -10 10 -2
0 -7 -4 -10 -10z"/>
<path d="M8440 7840 c0 -5 5 -10 11 -10 5 0 7 5 4 10 -3 6 -8 10 -11 10 -2 0
-4 -4 -4 -10z"/>
<path d="M8360 7833 c8 -4 20 -13 26 -21 7 -10 13 -12 18 -4 7 12 -24 33 -46
31 -9 0 -8 -2 2 -6z"/>
<path d="M4946 7811 c-4 -7 -5 -15 -2 -18 9 -9 19 4 14 18 -4 11 -6 11 -12 0z"/>
<path d="M4998 7798 c5 -21 22 -24 22 -4 0 8 6 17 13 19 6 3 0 5 -14 4 -20 -1
-25 -5 -21 -19z"/>
<path d="M4740 7781 c0 -18 -32 -41 -56 -41 -13 0 -24 -5 -24 -11 0 -5 -4 -8
-8 -5 -15 9 -128 -30 -219 -76 -23 -11 -49 -18 -57 -15 -9 4 -16 2 -16 -4 0
-7 -10 -9 -25 -5 -18 5 -25 2 -25 -8 0 -8 -8 -20 -17 -25 -50 -29 112 18 169
50 10 5 25 9 33 9 8 0 15 5 15 10 0 6 7 10 15 10 15 0 25 4 72 28 12 6 44 14
72 18 28 4 54 11 57 15 3 5 18 9 34 9 16 0 32 5 35 10 4 6 -5 10 -20 10 -20 0
-26 4 -21 15 3 8 1 15 -4 15 -6 0 -10 -4 -10 -9z"/>
<path d="M2821 7764 c0 -11 3 -14 6 -6 3 7 2 16 -1 19 -3 4 -6 -2 -5 -13z"/>
<path d="M4825 7770 c-22 -9 -14 -13 26 -11 37 3 136 -37 142 -57 3 -9 20 -41
36 -70 20 -35 31 -67 31 -92 0 -35 3 -40 23 -40 14 0 31 13 47 36 33 49 76 94
89 94 6 0 11 3 11 8 0 8 48 32 65 32 6 0 20 6 30 14 18 13 15 14 -30 11 -39
-3 -51 -8 -59 -24 -5 -12 -12 -21 -15 -21 -3 0 -19 -11 -35 -25 l-30 -26 -15
25 c-17 28 -37 40 -46 26 -3 -5 3 -11 14 -15 24 -7 33 -41 18 -69 -26 -46 -47
-47 -47 -2 0 19 -6 36 -12 39 -10 3 -10 8 1 21 17 21 7 33 -14 16 -13 -10 -15
-9 -15 9 0 11 -4 21 -10 21 -5 0 -10 13 -10 30 0 23 -5 31 -25 36 -13 3 -27
15 -31 26 -5 16 -8 18 -15 7 -6 -11 -14 -11 -42 -1 -38 14 -54 14 -82 2z"/>
<path d="M8330 7739 c0 -5 5 -7 10 -4 6 3 10 8 10 11 0 2 -4 4 -10 4 -5 0 -10
-5 -10 -11z"/>
<path d="M2820 7730 c0 -5 5 -10 10 -10 6 0 10 5 10 10 0 6 -4 10 -10 10 -5 0
-10 -4 -10 -10z"/>
<path d="M5374 7686 c15 -9 39 -16 52 -16 13 0 32 -4 42 -9 9 -5 46 -23 82
-41 121 -60 267 -188 371 -324 24 -32 59 -77 77 -99 18 -23 35 -50 39 -60 3
-10 11 -16 17 -14 19 6 12 32 -11 42 -29 12 -29 23 -1 27 12 2 23 9 26 17 3
10 -3 12 -26 6 -26 -5 -33 -2 -53 27 -12 18 -43 56 -68 84 -88 98 -97 110 -93
122 2 7 -2 10 -12 6 -15 -6 -21 4 -17 34 1 6 -3 12 -9 12 -5 0 -10 -5 -10 -12
0 -6 -3 -8 -7 -4 -5 4 -8 13 -8 19 0 7 -10 13 -22 15 -27 4 -97 68 -83 77 14
8 13 45 -1 45 -6 0 -9 -6 -6 -14 3 -8 -1 -17 -9 -20 -17 -6 -44 3 -44 15 0 5
-10 9 -23 9 -13 0 -33 9 -45 20 -12 11 -29 20 -40 20 -10 0 -22 4 -27 9 -6 6
-35 13 -65 16 -54 7 -55 6 -26 -9z"/>
<path d="M5570 7690 c0 -5 7 -10 15 -10 8 0 15 5 15 10 0 6 -7 10 -15 10 -8 0
-15 -4 -15 -10z"/>
<path d="M5165 7680 c3 -5 8 -10 11 -10 2 0 4 5 4 10 0 6 -5 10 -11 10 -5 0
-7 -4 -4 -10z"/>
<path d="M5630 7676 c0 -9 5 -16 10 -16 6 0 10 4 10 9 0 6 -4 13 -10 16 -5 3
-10 -1 -10 -9z"/>
<path d="M4215 7660 c-3 -5 -1 -10 4 -10 6 0 11 5 11 10 0 6 -2 10 -4 10 -3 0
-8 -4 -11 -10z"/>
<path d="M2710 7644 c0 -8 5 -12 10 -9 6 4 8 11 5 16 -9 14 -15 11 -15 -7z"/>
<path d="M8247 7646 c-11 -8 -14 -17 -8 -20 5 -4 15 3 21 14 13 23 11 24 -13
6z"/>
<path d="M4240 7600 c0 -5 5 -10 10 -10 6 0 10 5 10 10 0 6 -4 10 -10 10 -5 0
-10 -4 -10 -10z"/>
<path d="M4223 7574 c-3 -8 -15 -14 -27 -14 -11 0 -41 -9 -65 -20 -24 -11 -53
-20 -64 -20 -16 0 -18 -3 -9 -12 9 -9 22 -8 54 2 24 7 47 17 53 22 5 4 19 8
31 8 13 0 26 5 29 10 3 6 15 10 26 10 25 0 24 16 -2 23 -12 3 -22 0 -26 -9z"/>
<path d="M2670 7560 c0 -5 5 -10 10 -10 6 0 10 5 10 10 0 6 -4 10 -10 10 -5 0
-10 -4 -10 -10z"/>
<path d="M5785 7540 c3 -5 8 -10 11 -10 2 0 4 5 4 10 0 6 -5 10 -11 10 -5 0
-7 -4 -4 -10z"/>
<path d="M8041 7494 c0 -11 3 -14 6 -6 3 7 2 16 -1 19 -3 4 -6 -2 -5 -13z"/>
<path d="M3983 7489 c12 -7 27 -7 45 0 25 9 24 9 -18 10 -36 0 -41 -2 -27 -10z"/>
<path d="M3598 7483 c7 -3 16 -2 19 1 4 3 -2 6 -13 5 -11 0 -14 -3 -6 -6z"/>
<path d="M3888 7485 c-2 -2 -35 -9 -73 -14 -51 -7 -73 -7 -83 2 -11 9 -17 7
-27 -6 -8 -12 -25 -17 -46 -16 -19 0 -144 0 -279 0 -140 -1 -260 3 -280 9 -43
12 -97 13 -104 1 -7 -11 45 -17 270 -31 202 -13 535 3 618 31 16 5 43 9 59 9
17 0 28 3 25 6 -8 7 -74 15 -80 9z"/>
<path d="M5315 7471 c-71 -25 -90 -39 -131 -101 -42 -64 -54 -94 -61 -161 -3
-33 -10 -62 -14 -65 -10 -6 -12 -314 -3 -338 3 -9 17 -16 30 -16 18 0 24 7 29
33 10 58 10 122 0 124 -6 2 -10 -20 -9 -53 1 -50 -1 -55 -20 -52 -16 2 -20 9
-18 28 3 27 3 26 2 149 -1 46 2 87 7 90 4 3 8 30 8 59 0 30 3 56 8 59 4 2 7
15 7 29 0 13 5 24 10 24 6 0 10 9 10 21 0 15 4 19 16 15 12 -5 15 -2 10 10 -6
16 22 74 36 74 4 0 16 8 26 18 23 23 80 44 86 33 6 -9 92 2 103 12 3 4 -11 7
-33 7 -21 0 -48 2 -59 4 -11 3 -29 1 -40 -3z"/>
<path d="M5444 7439 c-18 -20 -18 -20 6 -15 14 4 36 0 50 -9 14 -8 37 -19 51
-25 20 -9 25 -16 21 -32 -4 -15 -2 -19 7 -14 19 12 64 -11 86 -44 11 -17 28
-33 38 -36 12 -4 16 -12 13 -27 -3 -12 -3 -16 0 -9 9 19 24 14 24 -7 0 -10 20
-40 45 -67 25 -26 45 -50 45 -54 0 -4 9 -15 20 -25 24 -22 25 -42 3 -67 -9
-10 -11 -18 -5 -18 6 0 14 5 17 10 9 14 35 12 35 -3 0 -7 9 -19 20 -27 11 -8
20 -25 20 -37 0 -13 5 -23 10 -23 6 0 10 -6 10 -14 0 -7 7 -19 15 -26 9 -7 15
-20 14 -29 -3 -29 1 -36 11 -21 8 12 10 11 10 -6 0 -11 9 -30 20 -42 13 -14
16 -23 9 -28 -8 -5 -6 -10 5 -16 12 -7 14 -14 6 -28 -5 -10 -10 -27 -9 -37 0
-15 2 -14 9 5 13 32 44 30 38 -3 -3 -14 -2 -25 2 -25 9 0 50 -79 50 -98 0 -12
3 -13 11 -5 12 12 12 13 -69 178 -38 78 -87 167 -129 233 -18 29 -33 57 -33
62 0 6 -4 10 -8 10 -5 0 -18 18 -31 40 -12 22 -28 45 -35 52 -6 7 -27 34 -44
60 -73 106 -217 233 -314 275 -22 10 -29 9 -44 -8z"/>
<path d="M5890 7394 c0 -8 5 -12 10 -9 6 3 10 10 10 16 0 5 -4 9 -10 9 -5 0
-10 -7 -10 -16z"/>
<path d="M6440 7396 c0 -9 8 -12 25 -8 14 2 25 8 25 13 0 5 -11 9 -25 9 -14 0
-25 -6 -25 -14z"/>
<path d="M7875 7400 c-3 -5 3 -10 15 -10 12 0 18 5 15 10 -3 6 -10 10 -15 10
-5 0 -12 -4 -15 -10z"/>
<path d="M5940 7390 c0 -5 5 -10 10 -10 6 0 10 5 10 10 0 6 -4 10 -10 10 -5 0
-10 -4 -10 -10z"/>
<path d="M6696 7387 c3 -10 9 -15 12 -12 3 3 0 11 -7 18 -10 9 -11 8 -5 -6z"/>
<path d="M6510 7375 c19 -18 186 -105 203 -105 7 0 30 -9 52 -20 22 -11 50
-20 62 -20 13 0 23 -4 23 -10 0 -5 13 -10 29 -10 17 0 32 -4 35 -9 6 -9 28
-13 161 -31 97 -12 298 -13 290 0 -3 6 0 10 7 10 10 0 10 2 -1 9 -9 6 -22 4
-37 -5 -24 -16 -190 -18 -200 -3 -3 5 -36 9 -75 9 -39 0 -69 4 -69 10 0 6 -14
10 -30 10 -17 0 -50 9 -72 20 -23 11 -50 20 -59 20 -10 0 -20 4 -23 9 -3 5
-27 12 -53 16 -30 4 -62 17 -85 36 -20 16 -44 29 -53 29 -9 0 -31 11 -49 25
-37 28 -82 36 -56 10z"/>
<path d="M6415 7359 c-4 -12 -2 -26 4 -32 8 -8 11 -2 11 21 0 37 -6 41 -15 11z"/>
<path d="M7776 7353 c-11 -11 -6 -23 9 -23 8 0 15 4 15 9 0 13 -16 22 -24 14z"/>
<path d="M6400 7298 c0 -14 -7 -31 -15 -38 -12 -10 -15 -30 -13 -84 1 -39 -2
-98 -8 -131 -5 -33 -7 -76 -2 -95 12 -56 17 -273 7 -291 -6 -12 -5 -19 4 -22
9 -3 9 -8 1 -16 -9 -10 -16 -6 -33 15 -30 38 -27 8 5 -55 46 -87 54 -71 54
101 0 83 -5 177 -12 209 -9 46 -8 91 6 239 9 100 15 185 12 188 -3 3 -6 -6 -6
-20z m-20 -713 c0 -8 -2 -15 -4 -15 -2 0 -6 7 -10 15 -3 8 -1 15 4 15 6 0 10
-7 10 -15z"/>
<path d="M5180 7245 c0 -8 5 -15 10 -15 6 0 10 7 10 15 0 8 -4 15 -10 15 -5 0
-10 -7 -10 -15z"/>
<path d="M6090 7250 c0 -5 5 -10 10 -10 6 0 10 5 10 10 0 6 -4 10 -10 10 -5 0
-10 -4 -10 -10z"/>
<path d="M6080 7190 c-8 -5 -11 -12 -8 -16 4 -3 14 1 23 10 18 17 9 21 -15 6z"/>
<path d="M7268 7193 c6 -2 18 -2 25 0 6 3 1 5 -13 5 -14 0 -19 -2 -12 -5z"/>
<path d="M5725 7181 c-3 -5 -1 -12 5 -16 5 -3 10 1 10 9 0 18 -6 21 -15 7z"/>
<path d="M5225 7120 c-3 -5 -1 -10 4 -10 6 0 11 5 11 10 0 6 -2 10 -4 10 -3 0
-8 -4 -11 -10z"/>
<path d="M6066 7121 c-6 -10 16 -61 27 -61 4 0 7 -6 7 -13 0 -7 9 -23 20 -35
12 -12 18 -22 15 -22 -4 0 2 -12 12 -27 11 -16 30 -49 44 -75 13 -27 27 -48
31 -48 5 0 8 -6 8 -14 0 -23 78 -168 84 -157 8 12 -14 61 -27 61 -5 0 -7 11
-5 25 3 14 1 25 -5 25 -5 0 -7 9 -4 20 3 11 1 20 -4 20 -5 0 -9 -4 -9 -10 0
-5 -5 -10 -11 -10 -6 0 -9 7 -5 15 6 17 -13 65 -26 65 -4 0 -8 7 -8 15 0 8 -4
15 -8 15 -5 0 -14 16 -22 35 -8 19 -18 35 -22 35 -5 0 -7 3 -4 8 2 4 -13 34
-35 66 -21 32 -36 62 -33 67 3 5 1 9 -5 9 -5 0 -12 -4 -15 -9z"/>
<path d="M5180 7110 c0 -5 5 -10 10 -10 6 0 10 5 10 10 0 6 -4 10 -10 10 -5 0
-10 -4 -10 -10z"/>
<path d="M5345 7105 c-5 -2 -31 -6 -57 -10 -35 -5 -46 -10 -41 -21 3 -8 -1
-14 -10 -14 -8 0 -27 -16 -41 -35 -21 -27 -25 -39 -17 -52 6 -10 11 -13 11 -5
0 24 44 80 77 97 22 12 46 16 75 13 46 -5 141 -46 176 -76 54 -45 63 -52 70
-52 10 0 85 -72 162 -156 77 -84 98 -110 155 -189 27 -38 57 -79 67 -89 10
-11 18 -23 18 -27 0 -5 20 -37 45 -72 25 -36 45 -68 45 -73 0 -4 6 -15 14 -23
8 -9 27 -41 44 -71 16 -30 40 -73 52 -95 33 -58 104 -199 140 -280 27 -60 33
-67 41 -50 7 15 8 12 3 -12 -3 -17 -1 -40 5 -50 5 -10 12 -30 16 -45 3 -16 10
-28 16 -28 11 0 11 6 -11 105 -6 28 -13 66 -16 85 -3 19 -9 44 -13 55 -18 44
-31 93 -31 113 0 12 -4 22 -10 22 -12 0 -13 -35 -1 -58 13 -26 24 -125 12
-118 -5 4 -13 21 -16 39 -4 17 -18 50 -31 73 -13 22 -24 48 -24 57 0 10 -6 17
-13 17 -17 0 -41 73 -27 78 13 5 13 32 1 32 -5 0 -11 -5 -13 -12 -2 -6 -10 -8
-17 -4 -7 5 -10 14 -7 22 3 8 -1 14 -10 14 -13 0 -14 8 -9 43 6 34 5 40 -6 30
-10 -10 -16 -8 -31 9 -10 12 -18 27 -18 35 0 7 -4 13 -10 13 -5 0 -10 8 -10
18 0 10 -11 28 -25 40 -25 22 -33 42 -16 42 5 0 12 -7 15 -16 3 -8 10 -12 16
-9 20 12 10 24 -25 31 -20 3 -40 15 -46 26 -7 12 -7 18 -1 14 5 -3 15 1 22 9
11 13 8 15 -14 15 -31 0 -50 15 -60 48 -4 12 -12 22 -17 22 -6 0 -15 14 -20
30 -6 17 -15 30 -21 30 -6 0 -7 7 -4 16 4 11 2 15 -8 11 -8 -3 -19 5 -26 19
-8 13 -17 24 -22 24 -4 0 -8 5 -8 11 0 6 -11 20 -25 31 -14 11 -25 24 -25 30
0 5 -11 19 -25 30 -14 11 -25 26 -25 34 0 8 -4 14 -10 14 -12 0 -60 48 -60 60
0 5 -10 12 -22 16 -12 3 -40 24 -62 45 -22 22 -46 37 -53 35 -13 -6 -36 18
-26 27 3 4 1 7 -5 7 -7 0 -12 7 -12 16 0 8 -5 12 -10 9 -6 -4 -7 -11 -4 -17 4
-6 -2 -6 -15 1 -11 7 -21 9 -21 6 0 -3 -10 4 -22 15 -12 11 -28 18 -34 16 -6
-2 -15 -1 -20 4 -5 4 -13 6 -19 5z"/>
<path d="M5455 7100 c4 -6 11 -8 16 -5 14 9 11 15 -7 15 -8 0 -12 -5 -9 -10z"/>
<path d="M5525 7090 c-7 -12 2 -30 16 -30 12 0 12 27 0 35 -5 3 -12 1 -16 -5z"/>
<path d="M5636 7091 c-4 -5 -2 -12 3 -15 5 -4 12 -2 15 3 4 5 2 12 -3 15 -5 4
-12 2 -15 -3z"/>
<path d="M5150 7083 c1 -20 20 -37 29 -28 7 7 4 14 -9 23 -11 7 -20 9 -20 5z"/>
<path d="M5650 7030 c0 -5 5 -10 10 -10 6 0 10 5 10 10 0 6 -4 10 -10 10 -5 0
-10 -4 -10 -10z"/>
<path d="M5150 7010 c0 -5 5 -10 10 -10 6 0 10 5 10 10 0 6 -4 10 -10 10 -5 0
-10 -4 -10 -10z"/>
<path d="M5615 6990 c3 -5 8 -10 11 -10 2 0 4 5 4 10 0 6 -5 10 -11 10 -5 0
-7 -4 -4 -10z"/>
<path d="M5788 6928 c7 -7 12 -20 12 -30 0 -10 4 -18 8 -18 5 0 7 14 4 30 -3
19 -10 30 -20 30 -12 0 -13 -3 -4 -12z"/>
<path d="M6220 6899 c0 -5 5 -7 10 -4 6 3 10 8 10 11 0 2 -4 4 -10 4 -5 0 -10
-5 -10 -11z"/>
<path d="M5835 6830 c-3 -5 -1 -10 4 -10 6 0 11 5 11 10 0 6 -2 10 -4 10 -3 0
-8 -4 -11 -10z"/>
<path d="M6315 6790 c3 -5 10 -10 16 -10 5 0 9 5 9 10 0 6 -7 10 -16 10 -8 0
-12 -4 -9 -10z"/>
<path d="M6342 6744 c-7 -8 -8 -14 -3 -14 10 0 25 19 20 25 -2 1 -10 -3 -17
-11z"/>
<path d="M5300 6703 c-58 -6 -74 -11 -108 -41 -34 -29 -64 -76 -55 -86 10 -9
33 6 33 23 1 47 72 86 158 84 34 0 68 -6 76 -12 7 -6 16 -7 21 -3 4 4 4 -3 1
-15 -5 -14 -3 -23 3 -23 6 0 11 5 11 10 0 6 7 10 15 10 8 0 15 -4 15 -10 0 -5
7 -10 15 -10 13 0 14 -4 5 -20 -11 -21 3 -29 15 -10 4 6 22 -2 45 -20 21 -16
43 -30 49 -30 18 0 52 -44 48 -61 -3 -12 1 -15 12 -12 10 2 23 -3 30 -11 8 -9
10 -16 6 -16 -4 0 6 -13 21 -29 16 -16 45 -50 64 -75 19 -26 43 -56 54 -68 10
-11 20 -35 21 -52 1 -22 10 -35 29 -44 14 -7 35 -32 46 -55 11 -23 29 -53 40
-67 16 -20 20 -22 20 -7 0 9 -4 17 -10 17 -5 0 -9 3 -8 8 3 11 -35 82 -44 82
-4 0 -8 4 -8 10 0 10 -88 151 -100 160 -4 3 -20 23 -36 45 -53 72 -178 205
-193 205 -5 0 -16 6 -23 13 -22 21 -101 72 -138 89 -42 19 -83 25 -130 21z"/>
<path d="M5185 6579 c-10 -15 1 -23 20 -15 9 3 13 10 10 16 -8 13 -22 13 -30
-1z"/>
<path d="M5118 6548 c-2 -21 -5 -32 -11 -48 -3 -8 -11 -52 -18 -97 -10 -66
-10 -105 0 -200 7 -65 15 -125 18 -133 3 -8 12 -53 19 -100 23 -151 29 -173
47 -184 32 -20 52 4 55 70 2 32 7 63 13 68 5 6 9 18 9 29 0 21 53 103 72 110
7 3 2 6 -12 6 -15 1 -31 6 -38 13 -7 7 -12 9 -12 4 0 -4 7 -14 15 -22 13 -13
12 -17 -5 -34 -11 -11 -20 -27 -20 -35 0 -8 -4 -15 -10 -15 -5 0 -10 -10 -10
-22 0 -18 -2 -20 -10 -8 -13 20 -24 6 -12 -17 12 -23 1 -115 -15 -120 -6 -2
-14 11 -18 29 -4 18 -11 38 -15 43 -11 14 -22 80 -23 142 -1 28 -5 55 -9 59
-5 4 -8 37 -8 74 0 36 -5 71 -11 77 -7 7 -9 37 -5 84 3 41 7 93 8 116 2 23 9
48 16 55 6 6 12 22 12 34 0 12 6 25 13 27 6 3 2 6 -10 6 -13 1 -24 -5 -25 -11z"/>
<path d="M5435 6540 c-3 -5 -1 -10 4 -10 6 0 11 5 11 10 0 6 -2 10 -4 10 -3 0
-8 -4 -11 -10z"/>
<path d="M6164 6499 c9 -50 11 -56 23 -71 6 -7 15 -26 18 -41 4 -15 11 -30 16
-33 5 -3 9 -16 9 -29 0 -13 10 -43 21 -67 42 -83 61 -162 45 -178 -7 -7 -5
-10 6 -10 9 0 19 3 21 8 5 7 -11 75 -27 117 -4 11 -12 34 -18 50 -12 37 -27
74 -39 97 -5 10 -9 25 -9 33 0 15 -3 23 -33 83 -9 19 -17 40 -17 47 0 8 -5 17
-11 21 -8 5 -10 -3 -5 -27z"/>
<path d="M5540 6435 c7 -8 16 -12 21 -9 13 8 1 24 -18 24 -13 0 -13 -3 -3 -15z"/>
<path d="M5570 6390 c0 -5 9 -10 20 -10 11 0 20 5 20 10 0 6 -9 10 -20 10 -11
0 -20 -4 -20 -10z"/>
<path d="M5735 6310 c3 -5 8 -10 11 -10 2 0 4 5 4 10 0 6 -5 10 -11 10 -5 0
-7 -4 -4 -10z"/>
<path d="M6205 6290 c3 -5 8 -10 11 -10 2 0 4 5 4 10 0 6 -5 10 -11 10 -5 0
-7 -4 -4 -10z"/>
<path d="M5857 6153 c-4 -3 2 -13 14 -21 26 -18 35 -10 11 11 -10 10 -22 14
-25 10z"/>
<path d="M5344 6081 c3 -5 31 -12 61 -16 30 -3 55 -11 55 -16 0 -5 5 -9 11 -9
7 0 34 -16 60 -35 27 -19 53 -35 58 -35 27 0 293 -303 324 -370 10 -19 31 -49
47 -67 17 -18 30 -35 30 -39 0 -4 20 -37 45 -75 25 -38 45 -73 45 -79 0 -5 4
-10 9 -10 5 0 11 -8 14 -17 6 -19 63 -121 77 -138 5 -5 30 -53 56 -105 54
-109 52 -105 61 -97 7 7 -36 97 -47 97 -3 0 -12 23 -19 51 -7 28 -20 53 -28
56 -8 3 -12 12 -8 20 3 11 1 13 -10 9 -10 -4 -15 1 -15 16 0 11 -16 43 -35 70
-20 27 -33 53 -30 59 4 5 0 12 -8 15 -13 5 -30 38 -29 55 1 3 -12 19 -28 34
-17 16 -30 35 -30 42 0 7 -4 13 -10 13 -5 0 -10 7 -10 15 0 9 -12 28 -27 43
-16 16 -34 39 -41 51 -15 26 -7 44 9 21 9 -13 10 -13 6 0 -2 8 -14 14 -26 13
-20 -3 -23 1 -25 30 -1 14 -21 37 -32 37 -12 0 -45 43 -41 54 2 6 13 10 23 9
10 -1 13 0 7 3 -7 3 -14 20 -14 37 -1 25 -3 27 -6 9 -7 -36 -30 -37 -61 -5
l-27 30 22 17 c13 9 23 21 23 25 0 15 -29 21 -52 11 -22 -8 -22 -9 5 -9 31 -1
36 -16 8 -24 -20 -5 -25 -1 -81 60 -16 18 -47 41 -67 52 -21 10 -51 31 -66 45
-16 15 -32 24 -37 21 -4 -2 -19 4 -33 15 -25 20 -124 30 -113 11z"/>
<path d="M5530 6061 c0 -5 7 -12 16 -15 24 -9 27 -7 10 9 -17 17 -26 19 -26 6z"/>
<path d="M5630 6030 c-8 -5 -12 -12 -9 -15 4 -3 12 1 19 10 14 17 11 19 -10 5z"/>
<path d="M6000 6028 c0 -10 -5 -18 -11 -18 -6 0 -9 -5 -7 -11 2 -6 7 -9 12 -7
4 2 14 -9 22 -24 8 -16 19 -28 24 -28 6 0 10 -7 10 -16 0 -8 5 -12 10 -9 8 5
8 11 0 20 -6 7 -22 35 -35 61 -14 27 -25 41 -25 32z"/>
<path d="M5985 5940 c3 -5 8 -10 11 -10 2 0 4 5 4 10 0 6 -5 10 -11 10 -5 0
-7 -4 -4 -10z"/>
<path d="M6000 5912 c0 -5 7 -13 16 -16 10 -4 14 -1 12 6 -5 15 -28 23 -28 10z"/>
<path d="M6067 5893 c-12 -11 -7 -33 7 -33 8 0 17 -15 20 -35 4 -19 10 -35 14
-35 4 0 13 -19 20 -42 7 -23 22 -59 33 -82 10 -22 19 -50 19 -63 0 -13 4 -23
9 -23 5 0 11 -8 14 -17 3 -10 17 -49 31 -87 15 -38 24 -77 21 -87 -4 -12 1
-22 15 -29 11 -6 20 -20 20 -31 0 -11 5 -30 12 -42 6 -12 12 -50 13 -85 2 -58
14 -100 16 -56 1 31 17 -32 24 -95 3 -30 3 -52 -1 -48 -11 11 -54 -33 -54 -55
0 -10 11 -35 24 -56 13 -20 30 -52 37 -69 16 -37 25 -41 32 -15 3 9 4 2 4 -17
-1 -20 3 -36 11 -39 15 -5 13 51 -7 178 -6 36 -13 85 -17 110 -3 25 -10 49
-15 54 -5 6 -9 22 -9 37 0 15 -4 30 -9 33 -4 3 -11 25 -14 48 -9 60 -47 180
-78 240 -5 10 -9 27 -9 38 0 11 -4 20 -10 20 -5 0 -10 11 -10 23 0 13 -3 26
-6 30 -4 3 -16 34 -28 69 -23 65 -37 98 -89 206 -32 67 -31 65 -40 55z m308
-950 c-4 -27 -1 -44 9 -58 19 -24 21 -55 4 -55 -17 1 -69 115 -62 134 3 9 17
16 31 16 23 0 24 -3 18 -37z"/>
<path d="M5980 5820 c0 -5 5 -10 10 -10 6 0 10 5 10 10 0 6 -4 10 -10 10 -5 0
-10 -4 -10 -10z"/>
<path d="M5971 5774 c0 -11 3 -14 6 -6 3 7 2 16 -1 19 -3 4 -6 -2 -5 -13z"/>
<path d="M5858 5763 c7 -3 16 -2 19 1 4 3 -2 6 -13 5 -11 0 -14 -3 -6 -6z"/>
<path d="M5910 5711 c0 -9 30 -24 36 -18 2 1 -6 8 -16 15 -11 7 -20 8 -20 3z"/>
<path d="M6185 5537 c-4 -10 -5 -21 -1 -24 10 -10 18 4 13 24 -4 17 -4 17 -12
0z"/>
<path d="M5341 5318 c-41 -23 -91 -77 -91 -97 0 -10 6 -7 18 7 13 15 22 18 35
11 13 -8 19 -6 23 6 4 9 3 19 -1 23 -4 4 -10 1 -12 -5 -3 -7 -10 -13 -16 -13
-6 0 0 11 13 25 13 14 31 25 41 25 10 0 21 5 24 10 11 17 107 8 145 -13 19
-11 53 -29 75 -41 22 -12 40 -29 40 -38 0 -9 4 -20 8 -24 4 -4 7 -2 7 4 0 18
18 14 24 -5 4 -10 26 -40 51 -67 25 -26 45 -56 45 -65 0 -9 9 -22 21 -29 16
-10 19 -19 14 -43 -6 -26 -4 -29 19 -29 28 0 33 -9 15 -27 -6 -6 -8 -17 -4
-23 6 -9 9 -9 16 1 6 10 13 7 28 -12 11 -13 20 -18 21 -11 0 6 -4 12 -10 12
-5 0 -10 8 -10 18 0 49 -249 362 -289 362 -10 0 -27 9 -39 20 -12 11 -30 20
-41 20 -11 0 -23 5 -26 10 -11 18 -107 10 -144 -12z"/>
<path d="M5527 5219 c-3 -13 -1 -19 6 -16 15 5 22 37 9 37 -5 0 -12 -9 -15
-21z"/>
<path d="M5355 5219 c-4 -6 -5 -12 -2 -15 2 -3 7 2 10 11 7 17 1 20 -8 4z"/>
<path d="M5222 5185 c-7 -14 -12 -33 -12 -41 0 -8 -4 -22 -10 -32 -41 -74 -71
-229 -84 -444 l-6 -97 35 6 c35 6 48 -8 23 -24 -7 -4 -13 -15 -13 -23 0 -8 -8
-16 -17 -18 -14 -3 -18 3 -18 22 0 14 -4 26 -10 26 -16 0 -12 -47 6 -64 17
-17 59 -22 68 -7 3 5 7 29 8 55 2 25 6 46 11 46 4 0 7 9 7 20 0 34 40 108 76
140 31 27 42 30 99 30 66 0 70 -2 185 -68 72 -42 126 -92 234 -217 28 -32 60
-69 71 -80 11 -12 29 -37 39 -56 10 -19 27 -43 36 -54 22 -25 130 -193 130
-201 0 -3 8 -18 18 -32 11 -15 32 -52 48 -82 16 -30 31 -57 34 -60 3 -3 28
-51 55 -107 28 -57 53 -103 58 -103 11 0 8 25 -5 38 -9 9 -8 12 4 12 25 0 32
-19 18 -45 -11 -20 -9 -31 10 -74 13 -27 27 -48 31 -46 4 3 6 -9 5 -26 0 -20
5 -35 16 -42 21 -14 36 -1 20 15 -7 7 -12 27 -12 44 0 18 -4 36 -10 39 -5 3
-10 19 -10 35 0 16 -4 32 -10 35 -5 3 -10 16 -10 28 0 12 -6 42 -13 66 l-13
43 -15 -30 c-10 -20 -19 -28 -27 -23 -9 5 -6 15 13 37 28 33 30 41 14 81 -30
74 -49 135 -49 156 0 9 -4 17 -10 17 -5 0 -10 10 -10 22 0 26 -52 173 -81 230
-5 10 -9 26 -9 36 0 10 -4 22 -9 28 -4 5 -21 43 -36 84 -16 41 -36 89 -45 105
-9 17 -27 56 -39 88 -13 31 -27 57 -32 57 -5 0 -9 6 -9 13 0 17 -53 126 -62
127 -12 0 -10 -28 2 -35 6 -3 10 -15 10 -26 0 -10 5 -19 10 -19 6 0 10 -7 10
-15 0 -8 4 -15 9 -15 5 0 12 -16 15 -35 4 -19 11 -35 16 -35 6 0 10 -9 10 -19
0 -11 5 -23 11 -27 6 -3 8 -17 4 -32 -5 -22 -4 -24 9 -13 14 12 16 10 16 -8 0
-12 5 -30 12 -41 10 -15 9 -23 -7 -40 -10 -11 -16 -22 -13 -25 3 -3 11 1 18
10 17 20 30 19 30 -3 0 -10 11 -41 25 -68 14 -27 25 -59 25 -71 0 -13 5 -23
10 -23 14 0 13 -37 -2 -42 -6 -2 -8 -10 -4 -17 6 -9 11 -9 23 1 14 12 15 9 9
-27 -6 -38 -6 -39 10 -20 14 17 16 18 10 2 -6 -20 14 -97 26 -97 5 0 8 -11 8
-25 0 -14 5 -25 11 -25 7 0 9 -10 6 -26 -2 -14 1 -31 7 -37 15 -15 39 -97 32
-105 -3 -3 1 -13 10 -23 9 -10 14 -26 12 -36 -4 -23 -38 -31 -38 -8 0 8 -7 18
-15 21 -8 4 -15 14 -15 24 0 10 -7 23 -15 30 -8 7 -15 21 -15 31 0 11 -4 19
-8 19 -4 0 -13 12 -20 28 -6 15 -23 45 -36 67 -30 48 -34 82 -5 40 19 -28 20
-28 13 -5 -8 29 -22 40 -39 33 -7 -2 -19 10 -26 26 -8 17 -17 31 -21 31 -5 0
-8 11 -8 25 0 16 -6 25 -15 25 -20 0 -32 30 -16 39 17 11 2 41 -21 41 -11 0
-33 14 -49 31 -27 29 -28 33 -14 49 8 9 15 21 15 26 0 5 -5 1 -11 -8 -5 -10
-15 -18 -21 -18 -6 0 -9 2 -6 5 3 3 -12 24 -33 46 -22 22 -39 47 -39 55 0 8
-7 14 -15 14 -8 0 -15 4 -15 8 0 9 -109 122 -117 122 -2 0 -10 6 -17 13 -7 6
-24 21 -39 31 -14 11 -24 23 -21 28 3 4 -2 8 -10 8 -9 0 -16 6 -16 13 0 7 -14
13 -32 13 -18 1 -34 6 -36 13 -2 6 -12 11 -22 11 -10 0 -22 5 -25 10 -3 6 -39
10 -78 10 -53 0 -78 -5 -93 -18 -37 -30 -94 -113 -94 -137 0 -22 -36 -55 -60
-55 -12 0 -6 149 10 244 5 33 7 62 5 64 -3 3 0 11 7 19 6 8 13 26 14 41 7 56
17 92 25 92 5 0 9 -5 9 -12 0 -6 3 -8 6 -5 4 4 2 13 -5 21 -12 14 -7 34 26
104 10 21 12 37 6 43 -6 6 -14 0 -21 -16z m778 -895 c0 -5 -4 -10 -10 -10 -5
0 -10 5 -10 10 0 6 5 10 10 10 6 0 10 -4 10 -10z"/>
<path d="M5390 5199 c0 -5 5 -7 10 -4 6 3 10 8 10 11 0 2 -4 4 -10 4 -5 0 -10
-5 -10 -11z"/>
<path d="M5220 5080 c0 -5 5 -10 10 -10 6 0 10 5 10 10 0 6 -4 10 -10 10 -5 0
-10 -4 -10 -10z"/>
<path d="M5690 5061 c0 -5 7 -11 15 -15 9 -3 15 0 15 9 0 8 -7 15 -15 15 -8 0
-15 -4 -15 -9z"/>
<path d="M5740 4981 c0 -6 5 -13 10 -16 6 -3 10 1 10 9 0 9 -4 16 -10 16 -5 0
-10 -4 -10 -9z"/>
<path d="M5220 4950 c0 -5 5 -10 10 -10 6 0 10 5 10 10 0 6 -4 10 -10 10 -5 0
-10 -4 -10 -10z"/>
<path d="M5172 4860 c0 -14 2 -19 5 -12 2 6 2 18 0 25 -3 6 -5 1 -5 -13z"/>
<path d="M5875 4860 c-3 -5 -1 -10 4 -10 6 0 11 5 11 10 0 6 -2 10 -4 10 -3 0
-8 -4 -11 -10z"/>
<path d="M5836 4831 c-4 -7 -5 -15 -2 -18 9 -9 19 4 14 18 -4 11 -6 11 -12 0z"/>
<path d="M5385 4820 c-3 -5 -2 -10 4 -10 5 0 13 5 16 10 3 6 2 10 -4 10 -5 0
-13 -4 -16 -10z"/>
<path d="M5170 4755 c0 -8 2 -15 4 -15 2 0 6 7 10 15 3 8 1 15 -4 15 -6 0 -10
-7 -10 -15z"/>
<path d="M5775 4580 c3 -5 8 -10 11 -10 2 0 4 5 4 10 0 6 -5 10 -11 10 -5 0
-7 -4 -4 -10z"/>
<path d="M6000 4381 c0 -25 6 -27 13 -6 4 8 2 17 -3 20 -6 4 -10 -3 -10 -14z"/>
<path d="M6070 4385 c0 -8 5 -15 10 -15 6 0 10 7 10 15 0 8 -4 15 -10 15 -5 0
-10 -7 -10 -15z"/>
<path d="M5951 4374 c0 -11 3 -14 6 -6 3 7 2 16 -1 19 -3 4 -6 -2 -5 -13z"/>
<path d="M6040 4360 c0 -5 5 -10 10 -10 6 0 10 5 10 10 0 6 -4 10 -10 10 -5 0
-10 -4 -10 -10z"/>
<path d="M5970 4339 c0 -5 5 -7 10 -4 6 3 10 8 10 11 0 2 -4 4 -10 4 -5 0 -10
-5 -10 -11z"/>
<path d="M5265 4190 c-3 -5 -24 -10 -46 -10 -21 0 -47 -4 -57 -9 -9 -5 -25
-12 -35 -15 -28 -9 -31 -33 -12 -112 22 -92 17 -183 -13 -243 -12 -25 -22 -51
-22 -58 0 -7 -3 -13 -8 -13 -4 0 -15 -17 -25 -37 -20 -43 -36 -71 -54 -91 -7
-7 -13 -17 -13 -21 0 -5 -14 -26 -31 -47 -16 -22 -42 -54 -57 -73 -30 -38 -33
-52 -14 -58 6 -3 12 1 12 9 0 7 11 25 25 40 14 15 25 32 25 38 0 5 4 10 8 10
4 0 16 14 26 31 10 17 20 28 23 25 8 -8 41 37 36 50 -2 6 4 14 15 16 14 4 21
18 26 57 4 28 11 51 16 51 4 0 11 13 15 29 3 16 13 35 21 42 8 6 14 18 14 26
0 8 3 12 8 10 4 -3 8 19 9 49 0 30 1 61 2 69 2 36 -4 61 -17 74 -8 8 -11 24
-7 42 4 18 2 29 -4 29 -17 0 -13 27 4 34 8 3 15 1 15 -4 0 -6 5 -10 11 -10 5
0 8 4 5 8 -2 4 4 13 15 20 11 7 19 8 19 2 0 -5 5 -10 10 -10 6 0 10 7 10 16 0
15 10 16 83 11 97 -7 146 -22 129 -39 -17 -17 -15 -33 3 -18 18 15 51 5 84
-26 20 -18 22 -24 10 -24 -9 0 -22 -7 -29 -15 -10 -12 -9 -15 7 -15 10 0 24 5
31 12 10 9 16 8 29 -5 15 -15 15 -17 0 -23 -9 -3 -17 -11 -17 -17 0 -5 8 -3
18 6 10 10 22 17 25 17 4 0 33 -26 66 -59 54 -54 58 -60 43 -75 -9 -8 -13 -19
-9 -23 4 -4 18 3 30 16 l22 23 -109 104 c-61 57 -115 104 -122 104 -7 0 -14 4
-16 8 -7 17 -79 53 -133 67 -66 18 -92 19 -100 5z"/>
<path d="M5420 4050 c0 -11 5 -20 10 -20 6 0 10 9 10 20 0 11 -4 20 -10 20 -5
0 -10 -9 -10 -20z"/>
<path d="M6220 3954 c0 -8 5 -12 10 -9 6 4 8 11 5 16 -9 14 -15 11 -15 -7z"/>
<path d="M5172 3918 c6 -18 28 -21 28 -4 0 9 -7 16 -16 16 -9 0 -14 -5 -12
-12z"/>
<path d="M5670 3900 c0 -5 4 -10 9 -10 6 0 13 5 16 10 3 6 -1 10 -9 10 -9 0
-16 -4 -16 -10z"/>
<path d="M5220 3890 c0 -5 5 -10 10 -10 6 0 10 5 10 10 0 6 -4 10 -10 10 -5 0
-10 -4 -10 -10z"/>
<path d="M5740 3880 c0 -5 4 -10 8 -10 4 0 16 -14 26 -31 15 -26 16 -33 5 -41
-11 -7 -9 -9 6 -5 23 5 44 -12 37 -31 -2 -6 2 -12 8 -12 6 0 19 -7 27 -16 13
-13 14 -20 5 -35 -7 -10 -8 -20 -2 -24 5 -3 11 -1 15 5 9 15 25 12 25 -4 0 -8
3 -16 8 -18 4 -1 25 -30 47 -63 22 -33 42 -62 45 -65 14 -14 30 -52 25 -60 -3
-6 1 -7 10 -4 13 5 15 2 10 -18 -5 -21 -2 -27 19 -32 16 -4 23 -11 20 -20 -3
-8 3 -20 13 -27 10 -8 24 -26 32 -40 7 -15 28 -44 47 -65 19 -22 39 -51 46
-65 6 -15 24 -35 40 -45 15 -11 28 -23 28 -27 0 -4 9 -18 20 -30 12 -12 16
-23 11 -25 -20 -7 16 -31 38 -25 20 5 26 -3 22 -34 -1 -7 9 -15 23 -19 13 -3
33 -17 45 -30 11 -13 25 -24 29 -24 5 0 15 -11 22 -25 8 -14 20 -23 27 -21 7
3 13 -1 13 -8 0 -7 20 -19 45 -26 37 -10 43 -15 34 -27 -16 -19 -5 -26 36 -25
19 1 35 -3 35 -8 0 -6 7 -10 15 -10 8 0 15 -4 15 -9 0 -5 9 -13 20 -16 15 -5
19 -12 15 -26 -8 -23 1 -24 22 -4 13 14 18 14 37 2 35 -23 128 -40 194 -35 36
2 63 0 65 -6 2 -5 17 5 34 22 35 37 44 39 67 13 21 -23 13 -43 -12 -34 -14 5
-15 3 -4 -8 18 -19 16 -53 -3 -45 -8 3 -15 0 -15 -7 0 -7 -16 -32 -35 -56 -31
-39 -40 -44 -36 -18 0 4 -6 7 -14 7 -10 0 -13 -7 -9 -27 5 -24 -1 -34 -40 -66
-25 -21 -46 -33 -46 -27 0 5 -7 10 -15 10 -17 0 -20 -16 -6 -25 5 -3 -2 -17
-15 -30 -14 -14 -30 -23 -35 -20 -5 4 -9 1 -9 -4 0 -6 -8 -11 -18 -11 -11 0
-18 -8 -19 -21 -3 -29 -10 -34 -28 -19 -9 7 -19 10 -22 6 -4 -4 -1 -11 6 -15
19 -12 -15 -30 -43 -23 -19 5 -19 4 -7 -11 12 -15 11 -17 -3 -17 -9 0 -16 -4
-16 -9 0 -5 -18 -11 -40 -15 -22 -3 -40 -11 -40 -17 0 -7 -9 -9 -21 -6 -15 4
-19 2 -15 -10 4 -9 1 -13 -6 -10 -7 2 -20 -2 -29 -10 -10 -8 -45 -15 -85 -17
-38 -2 -77 -7 -87 -11 -9 -4 -30 -4 -45 0 -15 3 -45 9 -67 12 -22 3 -44 9 -50
14 -5 5 -26 9 -46 9 -21 0 -40 4 -44 9 -3 5 -20 13 -37 17 -18 3 -39 10 -48
14 -8 4 -36 18 -62 30 -27 13 -48 30 -48 37 0 8 -6 13 -12 10 -23 -8 -69 25
-62 46 5 15 2 17 -20 11 -19 -4 -28 -2 -32 10 -3 9 -15 16 -25 16 -10 0 -19 4
-19 9 0 5 -9 13 -21 16 -17 6 -19 12 -14 37 6 27 5 28 -12 17 -17 -10 -26 -5
-69 34 -68 63 -73 68 -132 107 -29 19 -52 41 -52 48 0 6 -10 12 -22 12 -19 0
-20 2 -8 11 13 9 12 10 -3 5 -16 -5 -53 9 -67 25 -17 20 -88 59 -107 59 -13 0
-23 5 -23 10 0 6 10 10 23 10 21 1 22 1 3 15 -11 8 -31 15 -44 15 -21 0 -22
-2 -12 -15 14 -17 0 -20 -28 -6 -58 31 -104 45 -166 49 -50 4 -67 2 -62 -7 4
-6 29 -11 56 -11 27 0 52 -4 55 -10 3 -5 17 -10 30 -10 13 0 27 -4 30 -10 3
-5 17 -10 31 -10 13 0 24 -4 24 -10 0 -5 11 -10 24 -10 14 0 27 -4 30 -9 3 -5
18 -12 32 -15 15 -4 46 -20 70 -37 23 -16 45 -29 49 -29 5 0 125 -86 205 -148
30 -23 105 -87 120 -102 3 -3 28 -23 55 -45 28 -21 52 -42 55 -46 23 -28 228
-135 280 -146 17 -3 33 -10 36 -14 3 -5 18 -9 33 -9 15 0 31 -4 36 -9 30 -28
355 -28 355 0 0 5 6 9 13 9 16 0 177 82 219 111 127 88 339 292 381 366 13 22
11 81 -3 98 -18 21 -60 18 -80 -5 -38 -44 -232 -31 -328 22 -18 10 -37 18 -42
18 -16 0 -181 109 -240 159 -99 83 -122 105 -197 191 -100 115 -106 122 -139
174 -16 25 -32 46 -36 46 -5 0 -8 6 -8 14 0 8 -13 28 -29 45 -15 16 -26 32
-24 35 3 3 -4 14 -14 26 -11 11 -26 33 -34 48 -7 15 -33 53 -56 85 -24 31 -43
61 -43 66 0 5 -3 11 -7 13 -5 2 -33 37 -65 78 -87 116 -108 137 -108 110z"/>
<path d="M5186 3871 c-4 -5 -2 -12 3 -15 5 -4 12 -2 15 3 4 5 2 12 -3 15 -5 4
-12 2 -15 -3z"/>
<path d="M5210 3760 c0 -5 5 -10 11 -10 5 0 7 5 4 10 -3 6 -8 10 -11 10 -2 0
-4 -4 -4 -10z"/>
<path d="M5772 3758 c6 -18 28 -21 28 -4 0 9 -7 16 -16 16 -9 0 -14 -5 -12
-12z"/>
<path d="M5705 3740 c-3 -5 -1 -10 4 -10 6 0 11 5 11 10 0 6 -2 10 -4 10 -3 0
-8 -4 -11 -10z"/>
<path d="M4910 3411 c0 -6 5 -11 11 -11 6 0 9 -9 6 -20 -3 -11 -1 -20 5 -20
14 0 5 53 -9 58 -7 2 -13 -1 -13 -7z"/>
<path d="M4840 3400 c0 -12 -232 -243 -280 -278 -19 -15 -49 -38 -66 -52 -85
-69 -134 -105 -171 -123 -17 -9 -37 -22 -45 -29 -13 -14 -61 -40 -210 -116
-49 -24 -88 -48 -88 -52 0 -5 9 -12 20 -15 11 -3 20 -11 20 -16 0 -5 9 -9 20
-9 11 0 20 5 20 10 0 6 10 10 21 10 20 0 84 15 119 28 15 5 24 7 115 18 28 3
54 10 60 15 5 5 28 9 51 9 24 0 46 5 49 10 3 6 23 10 44 10 20 0 41 4 46 9 10
10 73 16 280 29 l120 7 -85 7 c-129 11 -162 10 -173 -1 -6 -6 -35 -11 -63 -11
-29 0 -65 -5 -80 -10 -15 -6 -49 -12 -75 -13 -26 -1 -45 -5 -42 -9 2 -5 -7 -8
-20 -8 -18 0 -27 7 -31 26 -4 15 -9 24 -11 22 -4 -4 -12 -37 -14 -59 -1 -7
-47 -14 -131 -22 -35 -4 -122 -24 -150 -35 -26 -10 -60 -11 -60 -2 0 5 9 12
20 15 11 3 20 11 20 17 0 6 13 8 29 6 17 -2 28 -1 26 2 -7 11 24 34 88 65 31
15 57 32 57 37 0 4 8 8 18 8 11 0 27 9 37 20 10 11 23 20 30 20 6 0 22 11 35
25 13 14 28 25 35 25 6 0 17 9 25 20 8 11 18 20 23 20 9 0 16 5 66 50 26 24
36 28 43 18 8 -10 9 -10 6 1 -7 24 57 74 83 66 19 -6 21 -4 15 18 -4 16 -1 29
9 37 12 10 15 9 15 -4 0 -9 2 -16 4 -16 2 0 13 -3 23 -7 14 -5 13 -1 -6 20
l-24 27 23 20 c13 11 27 20 31 20 12 0 30 -36 22 -44 -3 -3 -1 -6 5 -6 16 0
15 21 -2 46 -13 19 -11 24 29 65 43 42 56 69 35 69 -5 0 -10 -4 -10 -10z"/>
<path d="M6036 3365 c4 -8 8 -15 10 -15 2 0 4 7 4 15 0 8 -4 15 -10 15 -5 0
-7 -7 -4 -15z"/>
<path d="M6030 3320 c0 -5 5 -10 11 -10 5 0 7 5 4 10 -3 6 -8 10 -11 10 -2 0
-4 -4 -4 -10z"/>
<path d="M6198 3153 c7 -3 16 -2 19 1 4 3 -2 6 -13 5 -11 0 -14 -3 -6 -6z"/>
<path d="M4610 3120 c0 -5 7 -10 15 -10 8 0 15 5 15 10 0 6 -7 10 -15 10 -8 0
-15 -4 -15 -10z"/>
<path d="M4580 3060 c0 -12 28 -25 36 -17 3 3 -4 10 -15 17 -15 7 -21 7 -21 0z"/>
<path d="M6275 3040 c-3 -5 -1 -10 4 -10 6 0 11 5 11 10 0 6 -2 10 -4 10 -3 0
-8 -4 -11 -10z"/>
<path d="M4635 3020 c3 -5 8 -10 11 -10 2 0 4 5 4 10 0 6 -5 10 -11 10 -5 0
-7 -4 -4 -10z"/>
<path d="M4470 2990 c0 -5 5 -10 10 -10 6 0 10 5 10 10 0 6 -4 10 -10 10 -5 0
-10 -4 -10 -10z"/>
<path d="M4415 2950 c3 -5 11 -10 16 -10 6 0 7 5 4 10 -3 6 -11 10 -16 10 -6
0 -7 -4 -4 -10z"/>
<path d="M4430 2920 c0 -5 5 -10 10 -10 6 0 10 5 10 10 0 6 -4 10 -10 10 -5 0
-10 -4 -10 -10z"/>
<path d="M6455 2910 c3 -5 10 -10 16 -10 5 0 9 5 9 10 0 6 -7 10 -16 10 -8 0
-12 -4 -9 -10z"/>
<path d="M6650 2770 c-6 -11 -8 -20 -6 -20 3 0 10 9 16 20 6 11 8 20 6 20 -3
0 -10 -9 -16 -20z"/>
<path d="M6700 2749 c0 -5 5 -7 10 -4 6 3 10 8 10 11 0 2 -4 4 -10 4 -5 0 -10
-5 -10 -11z"/>
<path d="M5515 2700 c-3 -5 1 -10 10 -10 9 0 13 5 10 10 -3 6 -8 10 -10 10 -2
0 -7 -4 -10 -10z"/>
<path d="M5560 2650 c0 -5 5 -10 10 -10 6 0 10 5 10 10 0 6 -4 10 -10 10 -5 0
-10 -4 -10 -10z"/>
<path d="M5670 2600 c0 -5 5 -10 10 -10 6 0 10 5 10 10 0 6 -4 10 -10 10 -5 0
-10 -4 -10 -10z"/>
<path d="M5770 2539 c0 -5 5 -7 10 -4 6 3 10 8 10 11 0 2 -4 4 -10 4 -5 0 -10
-5 -10 -11z"/>
<path d="M6903 2543 c-18 -7 -16 -23 2 -23 8 0 15 7 15 15 0 8 -1 15 -2 14 -2
0 -9 -3 -15 -6z"/>
<path d="M6970 2530 c0 -5 4 -10 9 -10 6 0 13 5 16 10 3 6 -1 10 -9 10 -9 0
-16 -4 -16 -10z"/>
<path d="M7010 2510 c0 -5 5 -10 10 -10 6 0 10 5 10 10 0 6 -4 10 -10 10 -5 0
-10 -4 -10 -10z"/>
<path d="M6965 2489 c-12 -19 5 -23 22 -6 16 16 16 17 1 17 -9 0 -20 -5 -23
-11z"/>
<path d="M5820 2440 c0 -5 5 -10 11 -10 5 0 7 5 4 10 -3 6 -8 10 -11 10 -2 0
-4 -4 -4 -10z"/>
<path d="M6875 2424 c-16 -25 -16 -25 4 -14 12 6 21 17 21 25 0 21 -5 19 -25
-11z"/>
<path d="M5895 2390 c3 -5 11 -10 16 -10 6 0 7 5 4 10 -3 6 -11 10 -16 10 -6
0 -7 -4 -4 -10z"/>
<path d="M5910 2350 c0 -5 5 -10 10 -10 6 0 10 5 10 10 0 6 -4 10 -10 10 -5 0
-10 -4 -10 -10z"/>
<path d="M6425 2259 c-10 -15 3 -25 16 -12 7 7 7 13 1 17 -6 3 -14 1 -17 -5z"/>
<path d="M6560 2249 c-15 -27 -10 -30 12 -8 10 10 13 21 8 24 -5 3 -14 -4 -20
-16z"/>
<path d="M6145 2240 c-3 -5 1 -10 10 -10 9 0 13 5 10 10 -3 6 -8 10 -10 10 -2
0 -7 -4 -10 -10z"/>
<path d="M6480 2220 c0 -5 7 -10 16 -10 8 0 12 5 9 10 -3 6 -10 10 -16 10 -5
0 -9 -4 -9 -10z"/>
</g>
</svg>
